<?xml version="1.0" encoding="UTF-8"?>
<!DOCTYPE svg PUBLIC "-//W3C//DTD SVG 1.1//EN" "http://www.w3.org/Graphics/SVG/1.1/DTD/svg11.dtd">
<svg version="1.1" xmlns="http://www.w3.org/2000/svg" xmlns:xlink="http://www.w3.org/1999/xlink" x="0" y="0" width="141" height="141" viewBox="0, 0, 141, 141">
  <g id="Layer_1">
    <g>
      <path d="M20.256,45.383 L20.256,90.216 L65.088,90.216 L65.088,45.383 z" fill="#FFCDD5"/>
      <path d="M20.256,45.383 L20.256,90.216 L65.088,90.216 L65.088,45.383 z" fill-opacity="0" stroke="#E487A4" stroke-width="0.747"/>
      <path d="M80.032,15.495 L80.032,60.327 L124.865,60.327 L124.865,15.495 z" fill="#BADFEB"/>
      <path d="M80.032,15.495 L80.032,60.327 L124.865,60.327 L124.865,15.495 z" fill-opacity="0" stroke="#0083A6" stroke-width="0.747"/>
      <path d="M87.504,67.8 L87.504,112.632 L132.337,112.632 L132.337,67.8 z" fill="#BADFEB"/>
      <path d="M87.504,67.8 L87.504,112.632 L132.337,112.632 L132.337,67.8 z" fill-opacity="0" stroke="#0083A6" stroke-width="0.747"/>
      <path d="M5.312,2.04 L5.312,135.048 L138.319,135.048" fill-opacity="0" stroke="#000000" stroke-width="1.494"/>
      <g>
        <path d="M1.874,10.061 L5.312,2.04 L8.749,10.061 L5.312,7.769 L1.874,10.061 L5.312,2.04" fill="#000000"/>
        <path d="M1.874,10.061 L5.312,2.04 L8.749,10.061 L5.312,7.769 L1.874,10.061 L5.312,2.04" fill-opacity="0" stroke="#000000" stroke-width="1.494"/>
      </g>
      <g>
        <path d="M130.299,131.611 L138.32,135.048 L130.299,138.485 L132.591,135.048 L130.299,131.611 L138.32,135.048" fill="#000000"/>
        <path d="M130.299,131.611 L138.32,135.048 L130.299,138.485 L132.591,135.048 L130.299,131.611 L138.32,135.048" fill-opacity="0" stroke="#000000" stroke-width="1.494"/>
      </g>
      <path d="M109.921,37.911 C109.921,42.038 106.575,45.383 102.449,45.383 C98.322,45.383 94.977,42.038 94.977,37.911 C94.977,33.784 98.322,30.439 102.449,30.439 C106.575,30.439 109.921,33.784 109.921,37.911 z M102.449,37.911" fill="#BADFEB"/>
      <path d="M109.921,37.911 C109.921,42.038 106.575,45.383 102.449,45.383 C98.322,45.383 94.977,42.038 94.977,37.911 C94.977,33.784 98.322,30.439 102.449,30.439 C106.575,30.439 109.921,33.784 109.921,37.911 z M102.449,37.911" fill-opacity="0" stroke="#0083A6" stroke-width="1.494"/>
      <path d="M117.393,90.216 C117.393,94.343 114.047,97.688 109.921,97.688 C105.794,97.688 102.449,94.343 102.449,90.216 C102.449,86.089 105.794,82.744 109.921,82.744 C114.047,82.744 117.393,86.089 117.393,90.216 z M109.921,90.216" fill="#BADFEB"/>
      <path d="M117.393,90.216 C117.393,94.343 114.047,97.688 109.921,97.688 C105.794,97.688 102.449,94.343 102.449,90.216 C102.449,86.089 105.794,82.744 109.921,82.744 C114.047,82.744 117.393,86.089 117.393,90.216 z M109.921,90.216" fill-opacity="0" stroke="#0083A6" stroke-width="1.494"/>
      <path d="M35.2,60.327 L50.144,75.272" fill-opacity="0" stroke="#E487A4" stroke-width="1.494"/>
      <path d="M50.144,60.327 L35.2,75.272" fill-opacity="0" stroke="#E487A4" stroke-width="1.494"/>
      <path d="M65.088,0.551 L80.032,135.048" fill-opacity="0" stroke="#000000" stroke-width="1.494" stroke-dasharray="1.494,2.989"/>
    </g>
  </g>
</svg>
